<svg version="1.1" id="Layer_1" xmlns="http://www.w3.org/2000/svg" xmlns:xlink="http://www.w3.org/1999/xlink" x="0px" y="0px"
	 width="100%" viewBox="0 0 512 512" enable-background="new 0 0 512 512" xml:space="preserve">
<path fill="#FFFDFE" opacity="1.000000" stroke="none" 
	d="
M312.000000,513.000000 
	C208.025253,513.000000 104.550499,513.000000 1.037875,513.000000 
	C1.037875,342.400238 1.037875,171.800446 1.037875,1.100329 
	C171.558090,1.100329 342.116272,1.100329 512.837219,1.100329 
	C512.837219,171.666534 512.837219,342.333252 512.837219,513.000000 
	C446.133759,513.000000 379.316864,513.000000 312.000000,513.000000 
M252.073257,135.987976 
	C230.590500,135.987976 209.107727,135.987976 188.901215,135.987976 
	C185.513962,139.348801 182.869919,141.972229 180.225861,144.595642 
	C179.810608,144.276154 179.395340,143.956665 178.980072,143.637161 
	C178.980072,127.526115 178.980072,111.415062 178.980072,95.304016 
	C178.627365,95.507141 178.274658,95.710266 177.921951,95.913391 
	C176.557053,94.440041 175.192169,92.966682 173.528702,91.171051 
	C145.981583,91.171051 117.690872,91.171051 89.283127,91.171051 
	C89.051643,92.520508 88.844833,93.726097 88.610573,95.091736 
	C86.025772,95.091736 83.733826,95.091736 81.329437,95.091736 
	C81.329437,174.161591 81.329437,253.014771 81.329437,332.265564 
	C97.732620,332.265564 113.806564,332.265564 130.089874,332.265564 
	C130.089874,343.290863 130.089874,353.919647 130.089874,364.748962 
	C131.472641,364.942261 132.672256,365.109955 134.230927,365.327820 
	C134.230927,372.046906 134.230927,378.460785 134.230927,385.248383 
	C150.715103,385.248383 166.788849,385.248383 183.251831,385.248383 
	C183.251831,397.719116 183.251831,409.794830 183.251831,421.686829 
	C216.063095,421.686829 248.474365,421.686829 281.267517,421.686829 
	C281.267517,418.962555 281.267517,416.554810 281.267517,414.317108 
	C287.073364,414.317108 292.490570,414.317108 298.272949,414.317108 
	C298.272949,417.045410 298.272949,419.452972 298.272949,421.675354 
	C326.724579,421.675354 354.792633,421.675354 383.257233,421.675354 
	C383.257233,409.278076 383.257233,397.202423 383.257233,384.741211 
	C401.395416,384.741211 419.135284,384.741211 436.689331,384.741211 
	C436.689331,307.272552 436.689331,230.203888 436.689331,152.753586 
	C433.627350,152.753586 430.876740,152.753586 427.756561,152.753586 
	C427.756561,149.628433 427.756561,146.883423 427.756561,143.765137 
	C412.624878,143.765137 397.884644,143.765137 382.771362,143.765137 
	C382.771362,127.278397 382.771362,111.193291 382.771362,94.916122 
	C380.086792,94.916122 377.786926,94.916122 375.251007,94.916122 
	C375.078827,93.564980 374.924622,92.354965 374.768433,91.129440 
	C347.766937,91.129440 321.143188,91.129440 294.218750,91.129440 
	C294.071350,92.394287 293.929901,93.608253 293.746643,95.180847 
	C290.684418,95.180847 287.941345,95.180847 284.833893,95.180847 
	C284.833893,108.387909 284.833893,121.193542 284.147461,133.907791 
	C277.196259,131.476028 275.401367,126.347542 275.902985,119.444397 
	C276.360229,113.152046 276.175781,106.791588 275.868774,100.480865 
	C275.795532,98.974998 274.108826,97.547623 273.164215,96.084137 
	C272.109894,97.604599 270.261383,99.067566 270.146393,100.656036 
	C269.762726,105.955139 269.720245,111.318840 270.091675,116.619629 
	C270.371765,120.617058 271.571075,124.543152 272.177307,128.528976 
	C272.354706,129.695267 272.317841,131.382767 271.625031,132.060532 
	C270.876160,132.793182 269.049286,133.138153 268.034515,132.752518 
	C264.837769,131.537674 261.801361,129.900970 257.778534,127.987984 
	C256.276367,130.453888 254.637772,133.143753 252.073257,135.987976 
z"/>
<path fill="#000000" opacity="1.000000" stroke="none" 
	d="
M284.833893,133.999176 
	C284.833893,121.193542 284.833893,108.387909 284.833893,95.180847 
	C287.941345,95.180847 290.684418,95.180847 293.746643,95.180847 
	C293.929901,93.608253 294.071350,92.394287 294.218750,91.129440 
	C321.143188,91.129440 347.766937,91.129440 374.768433,91.129440 
	C374.924622,92.354965 375.078827,93.564980 375.251007,94.916122 
	C377.786926,94.916122 380.086792,94.916122 382.771362,94.916122 
	C382.771362,111.193291 382.771362,127.278397 382.771362,143.765137 
	C397.884644,143.765137 412.624878,143.765137 427.756561,143.765137 
	C427.756561,146.883423 427.756561,149.628433 427.756561,152.753586 
	C430.876740,152.753586 433.627350,152.753586 436.689331,152.753586 
	C436.689331,230.203888 436.689331,307.272552 436.689331,384.741211 
	C419.135284,384.741211 401.395416,384.741211 383.257233,384.741211 
	C383.257233,397.202423 383.257233,409.278076 383.257233,421.675354 
	C354.792633,421.675354 326.724579,421.675354 298.272949,421.675354 
	C298.272949,419.452972 298.272949,417.045410 298.272949,414.317108 
	C292.490570,414.317108 287.073364,414.317108 281.267517,414.317108 
	C281.267517,416.554810 281.267517,418.962555 281.267517,421.686829 
	C248.474365,421.686829 216.063095,421.686829 183.251831,421.686829 
	C183.251831,409.794830 183.251831,397.719116 183.251831,385.248383 
	C166.788849,385.248383 150.715103,385.248383 134.230927,385.248383 
	C134.230927,378.460785 134.230927,372.046906 134.230927,365.327820 
	C132.672256,365.109955 131.472641,364.942261 130.089874,364.748962 
	C130.089874,353.919647 130.089874,343.290863 130.089874,332.265564 
	C113.806564,332.265564 97.732620,332.265564 81.329437,332.265564 
	C81.329437,253.014771 81.329437,174.161591 81.329437,95.091736 
	C83.733826,95.091736 86.025772,95.091736 88.610573,95.091736 
	C88.844833,93.726097 89.051643,92.520508 89.283127,91.171051 
	C117.690872,91.171051 145.981583,91.171051 173.528702,91.171051 
	C175.192169,92.966682 176.557053,94.440041 177.921951,95.913391 
	C178.274658,95.710266 178.627365,95.507141 178.980072,95.304016 
	C178.980072,111.415062 178.980072,127.526115 178.980072,143.637161 
	C179.395340,143.956665 179.810608,144.276154 180.225861,144.595642 
	C182.869919,141.972229 185.513962,139.348801 188.901215,135.987976 
	C209.107727,135.987976 230.590500,135.987976 252.948181,135.988205 
	C255.215469,135.936844 256.607849,135.885269 258.330536,135.910217 
	C259.107117,135.935532 259.553406,135.884308 260.461731,135.910431 
	C265.228790,135.991547 269.535767,135.924530 273.837524,136.044479 
	C275.047028,136.078201 276.325928,136.490128 277.421814,137.033524 
	C278.918335,137.775558 280.270111,138.809402 281.683960,139.718170 
	C282.733948,137.811844 283.783936,135.905518 284.833893,133.999176 
M317.503418,402.000000 
	C332.593018,402.000000 347.682617,402.000000 363.272736,402.000000 
	C363.272736,389.250732 363.272736,377.184692 363.272736,364.806885 
	C382.390656,364.806885 400.999268,364.806885 419.690308,364.806885 
	C419.690308,296.750549 419.690308,229.027191 419.690308,161.357361 
	C399.320465,161.357361 379.262390,161.357361 358.899872,161.357361 
	C358.899872,219.668991 358.899872,277.623993 358.899872,335.579010 
	C358.448761,335.378876 357.997650,335.178772 357.546539,334.978638 
	C356.360474,336.788361 355.174377,338.598083 353.790985,340.708923 
	C346.364258,340.708923 338.277191,340.708923 331.868225,340.708923 
	C329.587738,338.034424 328.166870,336.368103 325.838379,333.637329 
	C325.838379,293.619873 325.838379,252.017609 325.838379,210.304962 
	C298.763916,210.304962 272.040527,210.304962 244.809692,210.304962 
	C244.809692,252.333755 244.809692,294.059906 244.809692,335.606079 
	C234.901917,335.606079 225.506958,335.606079 215.797607,335.606079 
	C215.797607,277.268585 215.797607,219.328751 215.797607,161.313049 
	C194.074921,161.313049 172.684219,161.313049 151.361069,161.313049 
	C151.361069,229.352386 151.361069,297.075958 151.361069,365.131104 
	C170.328430,365.131104 188.936996,365.131104 208.052155,365.131104 
	C208.052155,376.184662 208.052155,386.917664 208.052155,397.670532 
	C228.623291,397.670532 248.680588,397.670532 269.245239,397.670532 
	C269.245239,386.614471 269.245239,375.880920 269.245239,365.247498 
	C280.364227,365.247498 290.971161,365.247498 302.084503,365.247498 
	C302.084503,377.551025 302.084503,389.616089 302.084503,402.000000 
	C307.227570,402.000000 311.866272,402.000000 317.503418,402.000000 
M163.001465,139.364380 
	C163.001465,128.949127 163.001465,118.533890 163.001465,108.213554 
	C140.657730,108.213554 119.047394,108.213554 97.228912,108.213554 
	C97.228912,176.149902 97.228912,243.871796 97.228912,311.744293 
	C109.524155,311.744293 121.586594,311.744293 134.092346,311.744293 
	C134.092346,258.757263 134.092346,206.025162 134.092346,153.180115 
	C136.938187,153.030212 139.355560,152.902893 142.192505,152.753464 
	C142.192505,149.679382 142.192505,146.945496 142.192505,143.999557 
	C148.293594,143.999557 153.948395,143.825378 159.585052,144.069580 
	C162.618515,144.201004 163.388718,142.973145 163.001465,139.364380 
M339.000092,174.500076 
	C339.000092,167.400192 339.000092,160.300323 339.000092,153.166412 
	C342.015778,153.023468 344.426788,152.909180 347.264526,152.774673 
	C347.264526,149.600433 347.264526,146.866531 347.264526,143.696472 
	C352.788544,143.696472 357.854980,143.696472 362.776611,143.696472 
	C362.776611,131.626572 362.776611,120.020233 362.776611,108.234673 
	C342.500549,108.234673 322.449066,108.234673 302.239380,108.234673 
	C302.239380,135.185013 302.239380,161.899109 302.239380,188.901367 
	C311.415436,188.901367 320.358978,188.901367 329.213013,188.901367 
	C330.570618,193.460297 335.200348,197.009460 339.000000,196.370667 
	C339.000000,189.446716 339.000000,182.473312 339.000092,174.500076 
M235.998581,196.358154 
	C235.998581,198.145432 235.998581,199.932693 235.998581,201.733353 
	C237.559082,201.733353 238.619049,201.733353 240.124115,201.733353 
	C240.124115,197.420944 240.124115,193.343109 240.124115,188.860458 
	C249.950943,188.860458 259.339050,188.860458 268.712097,188.860458 
	C268.712097,178.043289 268.712097,167.664307 268.712097,157.287354 
	C257.709564,157.287354 246.998047,157.287354 235.998322,157.287354 
	C235.998322,170.180313 235.998322,182.787109 235.998581,196.358154 
z"/>
<path fill="#FEFDFD" opacity="1.000000" stroke="none" 
	d="
M284.490662,133.953491 
	C283.783936,135.905518 282.733948,137.811844 281.683960,139.718170 
	C280.270111,138.809402 278.918335,137.775558 277.421814,137.033524 
	C276.325928,136.490128 275.047028,136.078201 273.837524,136.044479 
	C269.535767,135.924530 265.228790,135.991547 260.418091,135.629868 
	C259.594177,134.978333 259.275940,134.684677 258.957703,134.391022 
	C258.638550,134.871902 258.319366,135.352783 258.000183,135.833679 
	C256.607849,135.885269 255.215469,135.936844 253.411133,135.911041 
	C254.637772,133.143753 256.276367,130.453888 257.778534,127.987984 
	C261.801361,129.900970 264.837769,131.537674 268.034515,132.752518 
	C269.049286,133.138153 270.876160,132.793182 271.625031,132.060532 
	C272.317841,131.382767 272.354706,129.695267 272.177307,128.528976 
	C271.571075,124.543152 270.371765,120.617058 270.091675,116.619629 
	C269.720245,111.318840 269.762726,105.955139 270.146393,100.656036 
	C270.261383,99.067566 272.109894,97.604599 273.164215,96.084137 
	C274.108826,97.547623 275.795532,98.974998 275.868774,100.480865 
	C276.175781,106.791588 276.360229,113.152046 275.902985,119.444397 
	C275.401367,126.347542 277.196259,131.476028 284.490662,133.953491 
z"/>
<path fill="#A800DB" opacity="1.000000" stroke="none" 
	d="
M317.004211,402.000000 
	C311.866272,402.000000 307.227570,402.000000 302.084503,402.000000 
	C302.084503,389.616089 302.084503,377.551025 302.084503,365.247498 
	C290.971161,365.247498 280.364227,365.247498 269.245239,365.247498 
	C269.245239,375.880920 269.245239,386.614471 269.245239,397.670532 
	C248.680588,397.670532 228.623291,397.670532 208.052155,397.670532 
	C208.052155,386.917664 208.052155,376.184662 208.052155,365.131104 
	C188.936996,365.131104 170.328430,365.131104 151.361069,365.131104 
	C151.361069,297.075958 151.361069,229.352386 151.361069,161.313049 
	C172.684219,161.313049 194.074921,161.313049 215.797607,161.313049 
	C215.797607,219.328751 215.797607,277.268585 215.797607,335.606079 
	C225.506958,335.606079 234.901917,335.606079 244.809692,335.606079 
	C244.809692,294.059906 244.809692,252.333755 244.809692,210.304962 
	C272.040527,210.304962 298.763916,210.304962 325.838379,210.304962 
	C325.838379,252.017609 325.838379,293.619873 325.838379,333.637329 
	C328.166870,336.368103 329.587738,338.034424 331.868225,340.708923 
	C338.277191,340.708923 346.364258,340.708923 353.790985,340.708923 
	C355.174377,338.598083 356.360474,336.788361 357.546539,334.978638 
	C357.997650,335.178772 358.448761,335.378876 358.899872,335.579010 
	C358.899872,277.623993 358.899872,219.668991 358.899872,161.357361 
	C379.262390,161.357361 399.320465,161.357361 419.690308,161.357361 
	C419.690308,229.027191 419.690308,296.750549 419.690308,364.806885 
	C400.999268,364.806885 382.390656,364.806885 363.272736,364.806885 
	C363.272736,377.184692 363.272736,389.250732 363.272736,402.000000 
	C347.682617,402.000000 332.593018,402.000000 317.004211,402.000000 
z"/>
<path fill="#FF9393" opacity="1.000000" stroke="none" 
	d="
M163.001175,139.847794 
	C163.388718,142.973145 162.618515,144.201004 159.585052,144.069580 
	C153.948395,143.825378 148.293594,143.999557 142.192505,143.999557 
	C142.192505,146.945496 142.192505,149.679382 142.192505,152.753464 
	C139.355560,152.902893 136.938187,153.030212 134.092346,153.180115 
	C134.092346,206.025162 134.092346,258.757263 134.092346,311.744293 
	C121.586594,311.744293 109.524155,311.744293 97.228912,311.744293 
	C97.228912,243.871796 97.228912,176.149902 97.228912,108.213554 
	C119.047394,108.213554 140.657730,108.213554 163.001465,108.213554 
	C163.001465,118.533890 163.001465,128.949127 163.001175,139.847794 
z"/>
<path fill="#FF9393" opacity="1.000000" stroke="none" 
	d="
M339.000061,175.000000 
	C339.000000,182.473312 339.000000,189.446716 339.000000,196.370667 
	C335.200348,197.009460 330.570618,193.460297 329.213013,188.901367 
	C320.358978,188.901367 311.415436,188.901367 302.239380,188.901367 
	C302.239380,161.899109 302.239380,135.185013 302.239380,108.234673 
	C322.449066,108.234673 342.500549,108.234673 362.776611,108.234673 
	C362.776611,120.020233 362.776611,131.626572 362.776611,143.696472 
	C357.854980,143.696472 352.788544,143.696472 347.264526,143.696472 
	C347.264526,146.866531 347.264526,149.600433 347.264526,152.774673 
	C344.426788,152.909180 342.015778,153.023468 339.000092,153.166412 
	C339.000092,160.300323 339.000092,167.400192 339.000061,175.000000 
z"/>
<path fill="#FF9393" opacity="1.000000" stroke="none" 
	d="
M235.998444,195.876038 
	C235.998322,182.787109 235.998322,170.180313 235.998322,157.287354 
	C246.998047,157.287354 257.709564,157.287354 268.712097,157.287354 
	C268.712097,167.664307 268.712097,178.043289 268.712097,188.860458 
	C259.339050,188.860458 249.950943,188.860458 240.124115,188.860458 
	C240.124115,193.343109 240.124115,197.420944 240.124115,201.733353 
	C238.619049,201.733353 237.559082,201.733353 235.998581,201.733353 
	C235.998581,199.932693 235.998581,198.145432 235.998444,195.876038 
z"/>
<path fill="#FFFDFE" opacity="1.000000" stroke="none" 
	d="
M258.330505,135.910217 
	C258.319366,135.352783 258.638550,134.871902 258.957703,134.391022 
	C259.275940,134.684677 259.594177,134.978333 259.956024,135.552521 
	C259.553406,135.884308 259.107117,135.935532 258.330505,135.910217 
z"/>
</svg>